<svg width="24" height="24" viewBox="0 0 24 24" fill="none" xmlns="http://www.w3.org/2000/svg">
<g clip-path="url(#clip0_126_1415)">
<path d="M3.57001 8.343C3.09828 8.34298 2.63101 8.43433 2.19401 8.612C1.77046 8.78312 1.38352 9.03361 1.05401 9.35C0.727529 9.66391 0.465016 10.0381 0.281013 10.452C0.0915729 10.8809 -0.00422453 11.3452 1.25931e-05 11.814C-0.00403487 12.2812 0.0917698 12.7438 0.281013 13.171C0.465758 13.5864 0.728898 13.9623 1.05601 14.278C1.73977 14.9339 2.65255 15.297 3.60001 15.29C3.93334 15.2909 4.2653 15.2472 4.58701 15.16C4.89821 15.075 5.1968 14.9493 5.47501 14.786L6.16201 15.484C6.21587 15.5385 6.28002 15.5818 6.35075 15.6114C6.42147 15.641 6.49736 15.6562 6.57401 15.6562C6.65066 15.6562 6.72655 15.641 6.79728 15.6114C6.868 15.5818 6.93216 15.5385 6.98601 15.484C7.09379 15.3754 7.15427 15.2285 7.15427 15.0755C7.15427 14.9225 7.09379 14.7756 6.98601 14.667L6.36201 14.043C6.62274 13.7395 6.83002 13.3939 6.97501 13.021C7.12574 12.6362 7.20241 12.2263 7.20101 11.813C7.20493 11.3441 7.1088 10.8798 6.91901 10.451C6.73475 10.0368 6.47151 9.66248 6.14401 9.349C5.81279 9.0331 5.42458 8.78301 5.00001 8.612C4.5562 8.43127 4.0812 8.33953 3.60201 8.342C3.59168 8.34195 3.58135 8.34195 3.57101 8.342L3.57001 8.343ZM14.876 8.528V10.012H14.111V11.075H14.876V13.217C14.876 13.636 14.929 13.978 15.035 14.245C15.1249 14.4877 15.2737 14.7042 15.468 14.875C15.6538 15.0307 15.8744 15.1394 16.111 15.192C16.3376 15.2509 16.5709 15.2798 16.805 15.278H17.658V14.265H16.922C16.803 14.2658 16.6845 14.2497 16.57 14.217C16.4609 14.1847 16.3611 14.1267 16.279 14.048C16.1875 13.9574 16.119 13.8464 16.079 13.724C16.0255 13.5563 16.0005 13.3809 16.005 13.205V11.075H17.671V10.012H16.011V8.528H14.876ZM9.40001 8.856C9.30932 8.856 9.21951 8.87388 9.13573 8.90862C9.05195 8.94335 8.97584 8.99427 8.91175 9.05845C8.84767 9.12263 8.79686 9.19881 8.76225 9.28264C8.72763 9.36647 8.70988 9.4563 8.71001 9.547C8.71001 9.73 8.78271 9.9055 8.91211 10.0349C9.04151 10.1643 9.21701 10.237 9.40001 10.237C9.49071 10.2371 9.58054 10.2194 9.66437 10.1848C9.7482 10.1501 9.82438 10.0993 9.88856 10.0353C9.95274 9.97117 10.0037 9.89506 10.0384 9.81128C10.0731 9.7275 10.091 9.63769 10.091 9.547C10.0911 9.4563 10.0734 9.36647 10.0388 9.28264C10.0042 9.19881 9.95336 9.12263 9.88927 9.05845C9.82518 8.99427 9.74908 8.94335 9.6653 8.90862C9.58152 8.87388 9.49171 8.856 9.40101 8.856H9.40001ZM12.171 8.856C12.0803 8.856 11.9905 8.87388 11.9067 8.90862C11.8229 8.94335 11.7468 8.99427 11.6828 9.05845C11.6187 9.12263 11.5679 9.19881 11.5332 9.28264C11.4986 9.36647 11.4809 9.4563 11.481 9.547C11.481 9.73 11.5537 9.9055 11.6831 10.0349C11.8125 10.1643 11.988 10.237 12.171 10.237C12.2617 10.2371 12.3515 10.2194 12.4354 10.1848C12.5192 10.1501 12.5954 10.0993 12.6596 10.0353C12.7237 9.97117 12.7747 9.89506 12.8094 9.81128C12.8441 9.7275 12.862 9.63769 12.862 9.547C12.8621 9.4563 12.8444 9.36647 12.8098 9.28264C12.7752 9.19881 12.7244 9.12263 12.6603 9.05845C12.5962 8.99427 12.5201 8.94335 12.4363 8.90862C12.3525 8.87388 12.2627 8.856 12.172 8.856H12.171ZM3.57101 9.394C3.58101 9.39393 3.59101 9.39393 3.60101 9.394C3.9205 9.39246 4.23695 9.45609 4.53101 9.581C4.81555 9.7007 5.07367 9.87538 5.29057 10.095C5.50748 10.3147 5.6789 10.575 5.79501 10.861C5.92016 11.1644 5.9834 11.4898 5.98101 11.818C5.98391 12.1463 5.92065 12.4717 5.79501 12.775C5.67768 13.0611 5.50582 13.3216 5.28901 13.542C5.06804 13.7645 4.80499 13.9409 4.51518 14.0607C4.22538 14.1805 3.91462 14.2415 3.60101 14.24C3.28152 14.2426 2.96493 14.1793 2.67101 14.054C2.38864 13.9337 2.13225 13.7598 1.91601 13.542C1.69197 13.3148 1.51491 13.0457 1.39497 12.7501C1.27502 12.4544 1.21455 12.138 1.21701 11.819C1.21241 11.1735 1.46375 10.5525 1.91601 10.092C2.13276 9.87458 2.38946 9.70106 2.67201 9.581C2.95595 9.45962 3.26123 9.39605 3.57001 9.394H3.57101ZM21.219 10.167C20.8692 10.167 20.5227 10.2353 20.199 10.368C19.8933 10.4959 19.6162 10.6836 19.384 10.92C19.1562 11.1534 18.9777 11.4302 18.859 11.734C18.7339 12.0518 18.6708 12.3905 18.673 12.732C18.6701 13.0732 18.7333 13.4118 18.859 13.729C18.9789 14.0321 19.1573 14.3087 19.384 14.543C19.6158 14.7784 19.8931 14.9641 20.199 15.089C20.535 15.2262 20.8952 15.2943 21.258 15.289C21.4322 15.289 21.6059 15.2703 21.776 15.233C21.9337 15.1991 22.0877 15.1502 22.236 15.087C22.3736 15.0283 22.5055 14.957 22.63 14.874C22.7472 14.7962 22.8573 14.7082 22.959 14.611L23.024 15.141H24V10.312H23.024L22.956 10.845C22.8561 10.7496 22.7484 10.6626 22.634 10.585C22.5103 10.4997 22.3783 10.427 22.24 10.368C22.0908 10.3055 21.9362 10.2569 21.778 10.223C21.6069 10.1854 21.4322 10.1666 21.257 10.167C21.2443 10.1669 21.2317 10.1669 21.219 10.167V10.167ZM8.84401 11.011V15.149H9.95701V11.01L8.84401 11.011ZM11.614 11.011V15.149H12.728V11.01L11.614 11.011ZM21.334 11.156C21.342 11.1559 21.35 11.1559 21.358 11.156C21.7684 11.1538 22.163 11.3138 22.456 11.601C22.5995 11.7419 22.7131 11.9102 22.79 12.096C22.8723 12.2961 22.9135 12.5107 22.911 12.727C22.9141 12.9463 22.8729 13.164 22.79 13.367C22.713 13.5529 22.6006 13.722 22.459 13.865C22.3191 14.0049 22.1525 14.1151 21.969 14.189C21.5813 14.3422 21.1498 14.3422 20.762 14.189C20.5779 14.1146 20.4103 14.0045 20.269 13.865C20.1259 13.7221 20.0126 13.5522 19.936 13.365C19.8532 13.1626 19.8117 12.9457 19.814 12.727C19.8109 12.5088 19.8517 12.2921 19.934 12.09C20.0098 11.9051 20.1213 11.7369 20.262 11.595C20.402 11.4556 20.5687 11.3457 20.752 11.272C20.9367 11.1973 21.1338 11.158 21.333 11.156H21.334Z" fill="#55C500"/>
</g>
<defs>
<clipPath id="clip0_126_1415">
<rect width="24" height="24" fill="white"/>
</clipPath>
</defs>
</svg>
