<svg width="20" height="20" viewBox="0 0 20 20" fill="none" xmlns="http://www.w3.org/2000/svg">
<path d="M4.99999 4.16666C10.9833 4.16666 15.8333 9.01666 15.8333 15M4.99999 9.16666C6.54709 9.16666 8.03082 9.78124 9.12478 10.8752C10.2187 11.9692 10.8333 13.4529 10.8333 15M5.83332 15C5.83332 15.221 5.74553 15.433 5.58925 15.5892C5.43297 15.7455 5.221 15.8333 4.99999 15.8333C4.77898 15.8333 4.56701 15.7455 4.41073 15.5892C4.25445 15.433 4.16666 15.221 4.16666 15C4.16666 14.779 4.25445 14.567 4.41073 14.4107C4.56701 14.2545 4.77898 14.1667 4.99999 14.1667C5.221 14.1667 5.43297 14.2545 5.58925 14.4107C5.74553 14.567 5.83332 14.779 5.83332 15Z" stroke="#4F4F4F" stroke-width="2" stroke-linecap="round" stroke-linejoin="round"/>
</svg>
