<svg width="20" height="20" viewBox="0 0 20 20" fill="none" xmlns="http://www.w3.org/2000/svg">
<g clip-path="url(#clip0_126_1314)">
<path d="M0.21998 19.8092H4.37331C4.59331 19.8092 4.78831 19.6867 4.91081 19.5158L16.345 0.728334C16.4916 0.484167 16.3208 0.190834 16.0275 0.190834H12.0941C11.8983 0.190834 11.7275 0.288334 11.63 0.460001L0.0249803 19.4675C-0.0483531 19.6142 0.0491469 19.8092 0.21998 19.8092ZM14.5375 19.5158L19.9366 10.8425C20.1075 10.5733 19.9125 10.2317 19.595 10.2317H15.6858C15.5391 10.2317 15.3925 10.305 15.3191 10.4275L9.77331 19.2967C9.62665 19.5167 9.79748 19.81 10.0666 19.81H14.0491C14.2441 19.8092 14.4391 19.7117 14.5375 19.5158V19.5158Z" fill="#3EA8FF"/>
</g>
<defs>
<clipPath id="clip0_126_1314">
<rect width="20" height="20" fill="white"/>
</clipPath>
</defs>
</svg>
